<svg width="20" height="20" viewBox="0 0 20 20" fill="none" xmlns="http://www.w3.org/2000/svg">
  <g clip-path="url(#clip0)">
    <path d="M15.105 11.8907C13.7149 11.8907 12.584 13.0216 12.584 14.4118C12.584 15.8019 13.7149 16.9328 15.105 16.9328C16.4954 16.9328 17.626 15.8019 17.626 14.4118C17.626 13.0216 16.4951 11.8907 15.105 11.8907ZM15.105 15.6723C14.4099 15.6723 13.8445 15.1069 13.8445 14.4118C13.8445 13.7166 14.4099 13.1513 15.105 13.1513C15.8002 13.1513 16.3655 13.7166 16.3655 14.4118C16.3655 15.107 15.8002 15.6723 15.105 15.6723Z" fill="black"/>
    <path d="M6.4916 11.8907C5.10148 11.8907 3.97058 13.0216 3.97058 14.4118C3.97058 15.8019 5.10148 16.9328 6.4916 16.9328C7.88171 16.9328 9.01261 15.8019 9.01261 14.4118C9.01261 13.0216 7.88171 11.8907 6.4916 11.8907ZM6.4916 15.6723C5.79644 15.6723 5.23109 15.1069 5.23109 14.4118C5.23109 13.7166 5.79644 13.1513 6.4916 13.1513C7.18656 13.1513 7.7521 13.7166 7.7521 14.4118C7.7521 15.107 7.18675 15.6723 6.4916 15.6723Z" fill="black"/>
    <path d="M16.8028 4.67483C16.6956 4.46202 16.4778 4.32776 16.2395 4.32776H12.9202V5.58827H15.8508L17.567 9.00171L18.6935 8.4353L16.8028 4.67483Z" fill="black"/>
    <path d="M13.2143 13.8026H8.44539V15.0631H13.2143V13.8026Z" fill="black"/>
    <path d="M4.60083 13.8026H2.41599C2.06786 13.8026 1.78575 14.0847 1.78575 14.4328C1.78575 14.7809 2.0679 15.063 2.41599 15.063H4.60087C4.94899 15.063 5.2311 14.7809 5.2311 14.4328C5.2311 14.0847 4.94895 13.8026 4.60083 13.8026Z" fill="black"/>
    <path d="M19.8677 9.9496L18.628 8.35296C18.5089 8.19917 18.325 8.10925 18.1303 8.10925H13.5504V3.69749C13.5504 3.34937 13.2683 3.06726 12.9202 3.06726H2.41599C2.06786 3.06726 1.78575 3.34941 1.78575 3.69749C1.78575 4.04558 2.0679 4.32773 2.41599 4.32773H12.2899V8.73949C12.2899 9.08761 12.5721 9.36972 12.9202 9.36972H17.8216L18.7395 10.5521V13.8025H16.9958C16.6477 13.8025 16.3656 14.0846 16.3656 14.4327C16.3656 14.7809 16.6477 15.063 16.9958 15.063H19.3697C19.7179 15.063 20 14.7808 20 14.4327V10.3362C20 10.1962 19.9534 10.0601 19.8677 9.9496Z" fill="black"/>
    <path d="M4.55883 10.6093H1.65965C1.31153 10.6093 1.02942 10.8914 1.02942 11.2395C1.02942 11.5876 1.31157 11.8697 1.65965 11.8697H4.55879C4.90692 11.8697 5.18903 11.5876 5.18903 11.2395C5.18907 10.8914 4.90692 10.6093 4.55883 10.6093Z" fill="black"/>
    <path d="M6.0084 8.13025H0.630234C0.282148 8.13025 0 8.4124 0 8.76052C0 9.10865 0.282148 9.39076 0.630234 9.39076H6.0084C6.35652 9.39076 6.63863 9.10861 6.63863 8.76052C6.63863 8.41244 6.35652 8.13025 6.0084 8.13025Z" fill="black"/>
    <path d="M7.03782 5.65125H1.65965C1.31153 5.65125 1.02942 5.93339 1.02942 6.28148C1.02942 6.6296 1.31157 6.91171 1.65965 6.91171H7.03782C7.38594 6.91171 7.66805 6.62957 7.66805 6.28148C7.66809 5.93339 7.38594 5.65125 7.03782 5.65125Z" fill="black"/>
  </g>
  <defs>
    <clipPath id="clip0">
      <rect width="20" height="20" fill="white"/>
    </clipPath>
  </defs>
</svg>